<svg width="16" height="16" viewBox="0 0 16 16" fill="none" xmlns="http://www.w3.org/2000/svg">
<g clip-path="url(#clip0_476_1036)">
<path d="M12.1254 11.8887C11.1015 11.8887 10.2572 12.715 10.2572 13.7569C10.2572 14.7808 11.0835 15.6251 12.1254 15.6251C13.1494 15.6251 13.9937 14.7988 13.9937 13.7569C13.9757 12.733 13.1494 11.8887 12.1254 11.8887Z" fill="#191A26"/>
<path d="M15.4129 2.97877C15.377 2.97877 15.3231 2.96081 15.2692 2.96081H3.95203L3.77239 1.75724C3.66461 0.966829 2.98199 0.374023 2.17362 0.374023H0.718551C0.323348 0.374023 0 0.697372 0 1.09258C0 1.48778 0.323348 1.81113 0.718551 1.81113H2.17362C2.26343 1.81113 2.33529 1.88298 2.35325 1.9728L3.46701 9.55352C3.61072 10.5056 4.43705 11.2242 5.40709 11.2242H12.88C13.8141 11.2242 14.6225 10.5595 14.8201 9.64334L15.9878 3.80511C16.0596 3.42787 15.8081 3.05063 15.4129 2.97877Z" fill="#191A26"/>
<path d="M7.54492 13.6671C7.50899 12.6791 6.68266 11.8887 5.69465 11.8887C4.65275 11.9426 3.86234 12.8048 3.89827 13.8288C3.9342 14.8168 4.74257 15.6072 5.73058 15.6072H5.7665C6.79044 15.5533 7.59881 14.691 7.54492 13.6671Z" fill="#191A26"/>
</g>
<defs>
<clipPath id="clip0_476_1036">
<rect width="16" height="16" fill="white"/>
</clipPath>
</defs>
</svg>
