<svg width="16" height="16" viewBox="0 0 16 16" fill="none" xmlns="http://www.w3.org/2000/svg">
<path d="M15.3333 8.65267H0.666667C0.298665 8.65267 0 8.354 0 7.986C0 7.618 0.298665 7.31934 0.666667 7.31934H15.3333C15.7013 7.31934 16 7.618 16 7.986C16 8.354 15.7013 8.65267 15.3333 8.65267Z" fill="#191A26"/>
<path d="M15.3333 3.54134H0.666667C0.298665 3.54134 0 3.24268 0 2.87467C0 2.50667 0.298665 2.20801 0.666667 2.20801H15.3333C15.7013 2.20801 16 2.50667 16 2.87467C16 3.24268 15.7013 3.54134 15.3333 3.54134Z" fill="#191A26"/>
<path d="M15.3333 13.764H0.666667C0.298665 13.764 0 13.4653 0 13.0973C0 12.7293 0.298665 12.4307 0.666667 12.4307H15.3333C15.7013 12.4307 16 12.7293 16 13.0973C16 13.4653 15.7013 13.764 15.3333 13.764Z" fill="#191A26"/>
</svg>
