<svg width="396" height="396" viewBox="0 0 396 396" fill="none" xmlns="http://www.w3.org/2000/svg">
<path d="M396 158.39V158.938C396 173.267 384.41 184.891 370.051 184.891H25.9493C11.6224 184.891 0 173.267 0 158.938V158.39C0 144.061 11.6224 132.469 25.9493 132.469H54.5063L51.9629 140.455C48.9688 149.793 54.12 159.807 63.4566 162.802L63.7785 162.898C73.1151 165.893 83.0956 160.741 86.0898 151.403L92.1424 132.469H303.858L309.91 151.403C312.904 160.741 322.885 165.893 332.254 162.898L332.576 162.802C341.912 159.807 347.063 149.793 344.069 140.455L341.526 132.469H370.051C384.41 132.469 396 144.061 396 158.39Z" fill="#01684B"/>
<path d="M316.639 396H79.361C61.9756 396 47.3912 382.927 45.5239 365.635L25.9171 184.863H370.051L350.444 365.635C348.577 382.927 333.992 396 316.639 396Z" fill="#84CEBC"/>
<path d="M127.074 23.2803L92.1424 132.471L86.0898 151.405C83.0956 160.743 73.1151 165.895 63.7785 162.9L63.4566 162.804C54.12 159.809 48.9688 149.795 51.9629 140.457L54.5063 132.471L92.9151 12.3644C95.9093 3.02638 105.89 -2.12564 115.226 0.836772L115.548 0.965572C124.885 3.92799 130.036 13.9422 127.074 23.2803Z" fill="#00956B"/>
<path d="M332.576 162.804L332.254 162.9C322.885 165.895 312.904 160.743 309.91 151.405L303.858 132.471L268.958 23.2803C265.964 13.9422 271.115 3.92799 280.452 0.965572L280.774 0.836772C290.11 -2.12564 300.091 3.02638 303.085 12.3644L341.526 132.471L344.069 140.457C347.063 149.795 341.912 159.809 332.576 162.804Z" fill="#00956B"/>
<path d="M281.321 352.334C280.902 352.334 280.452 352.301 280.033 352.269C272.145 351.561 266.35 344.606 267.059 336.717L275.655 241.565C276.363 233.676 283.317 227.88 291.205 228.588C299.093 229.297 304.888 236.252 304.18 244.141L295.583 339.293C294.907 346.731 288.661 352.334 281.321 352.334Z" fill="#DFFFF6"/>
<path d="M198 352.334C190.08 352.334 183.673 345.926 183.673 338.005V242.854C183.673 234.932 190.08 228.524 198 228.524C205.92 228.524 212.327 234.932 212.327 242.854V338.005C212.327 345.926 205.92 352.334 198 352.334Z" fill="#DFFFF6"/>
<path d="M114.681 352.334C107.341 352.334 101.127 346.731 100.451 339.293L91.8549 244.142C91.1466 236.253 96.9418 229.297 104.83 228.589C112.717 227.913 119.672 233.677 120.38 241.566L128.976 336.717C129.684 344.606 123.889 351.562 116.001 352.27C115.551 352.302 115.1 352.334 114.681 352.334Z" fill="#DFFFF6"/>
</svg>
